<svg width="34" height="30" viewBox="0 0 34 30" fill="none" xmlns="http://www.w3.org/2000/svg">
<path d="M17.9035 9.39387L17.9033 14.4168V14.4168V14.4752C17.9033 14.5917 17.9183 14.7048 17.9465 14.8125L17.8987 15.6302L17.8961 15.6742C17.8849 15.8659 17.8103 16.0335 17.6841 16.1598L19.1267 15.2149C19.0445 15.2014 18.9624 15.1722 18.8805 15.1277L18.4843 14.9119V14.4752V14.4168V9.39387M17.9035 9.39387V9.39383L18.1939 9.39385L18.4843 9.39387M17.9035 9.39387C17.9035 9.55429 18.0338 9.68428 18.1939 9.68428C18.3543 9.68428 18.4843 9.55398 18.4843 9.39387M17.9035 9.39387H18.1939H18.4843M12.2832 8.94488L12.2833 8.94492L12.2832 8.94488ZM12.2832 8.94488C12.0702 9.31595 11.5585 9.45448 11.1849 9.23985L12.2832 8.94488ZM10.8522 9.81758L10.8515 9.81722C10.5772 9.65883 10.3794 9.39938 10.2975 9.09534L10.2974 9.09489L10.2973 9.0948L10.2969 9.09326C10.2304 8.84274 10.2472 8.58065 10.343 8.34319V8.14862C10.1722 8.44361 10.1265 8.78782 10.2148 9.11694C10.3027 9.44587 10.514 9.72081 10.8095 9.89209L10.8522 9.81758ZM18.0956 16.5709L18.1557 16.631L18.0956 16.571L18.0949 16.5716C17.8441 16.822 17.5077 16.9601 17.1544 16.9601C17.1544 16.9601 17.1544 16.9601 17.1544 16.9601C16.6743 16.9601 16.2531 16.7049 16.0193 16.323C15.9953 16.3353 15.971 16.3471 15.9464 16.3586L18.0956 16.5709ZM10.9194 8.48354C10.8377 8.62526 10.8165 8.78672 10.8587 8.94397C10.8587 8.94402 10.8587 8.94407 10.8587 8.94411L10.8587 8.94424L10.8589 8.94486C10.9007 9.10121 10.9991 9.23078 11.1419 9.31421C11.142 9.31424 11.142 9.31428 11.1421 9.31431L10.9194 8.48354Z" fill="#4CAF4F" stroke="#4CAF4F" stroke-width="1.33333"/>
<path d="M9.12522 21.7918C8.94664 21.8993 8.71575 21.8413 8.60902 21.663C8.50207 21.4849 8.56002 21.2537 8.7379 21.1468L9.12522 21.7918ZM4.74682 17.4271C4.76146 17.4007 4.77516 17.3761 4.78784 17.3532C4.83909 17.2609 4.87379 17.1984 4.88773 17.1733L4.96352 17.2132C4.9167 17.2976 4.87076 17.3803 4.82569 17.4615C4.79929 17.4516 4.77294 17.4402 4.74682 17.4271ZM15.1553 19.7211C15.3075 19.6297 15.415 19.4851 15.4578 19.3133C15.5007 19.1418 15.4741 18.9635 15.3829 18.8113L15.1553 19.7211Z" fill="#4CAF4F" stroke="#4CAF4F" stroke-width="1.33333"/>
<path d="M20.8527 19.0933C20.7587 19.035 20.6732 18.966 20.5976 18.888L19.8782 18.5117L19.8782 18.5116L19.8381 18.4907C19.7243 18.4311 19.6083 18.4029 19.4965 18.4026L20.8527 19.0933ZM19.1717 17.862C19.1718 17.862 19.1719 17.8619 19.1721 17.8619L19.2275 18.0842L19.2275 18.0842L19.3126 18.4256L19.3125 18.4256L19.1717 17.862ZM23.3872 24.7857C23.387 24.7856 23.3869 24.7855 23.3867 24.7854L23.3872 24.7857ZM18.845 21.1872L18.8464 21.188L18.845 21.1872Z" fill="#4CAF4F" stroke="#4CAF4F" stroke-width="1.33333"/>
</svg>
