<svg width="46" height="23" viewBox="0 0 46 23" fill="none" xmlns="http://www.w3.org/2000/svg">
<path d="M22.9529 4.71971C23.0147 4.77449 23.0578 4.84652 23.0765 4.92609C23.0953 5.00567 23.0887 5.08896 23.0577 5.16474L17.9013 22.0988C17.8364 22.2836 17.7036 22.4382 17.5289 22.5324C17.3867 22.6256 17.2222 22.6807 17.0516 22.6922H0.663102C0.523142 22.6856 0.390547 22.6287 0.29063 22.5324C0.231192 22.4785 0.189476 22.4084 0.170814 22.3313C0.152152 22.254 0.157408 22.1731 0.185878 22.0988L5.35385 5.16474C5.4134 4.97752 5.54206 4.81882 5.71468 4.71971C5.85918 4.63317 6.02294 4.58227 6.1919 4.57136H22.5804C22.7193 4.57267 22.8524 4.62571 22.9529 4.71971ZM14.3978 18.6869L17.4823 8.57664H8.84575L5.77286 18.6869H14.3978ZM38.5965 4.89087C38.6524 4.95457 38.7223 5.00509 38.8009 5.03868C38.8795 5.07226 38.9647 5.08805 39.0505 5.08485H41.1805C41.2616 5.08563 41.3415 5.06613 41.4129 5.0282C41.4841 4.99026 41.5443 4.93514 41.5879 4.86804C41.6257 4.81563 41.6524 4.7563 41.6664 4.69357C41.6804 4.63085 41.6814 4.56601 41.6693 4.5029L41.2503 1.49037C41.2104 1.35095 41.1388 1.2222 41.0408 1.11381C40.9848 1.0501 40.915 0.999582 40.8364 0.965997C40.7578 0.932412 40.6725 0.916632 40.5869 0.919819H38.4568C38.3757 0.919047 38.2957 0.938547 38.2245 0.976482C38.1532 1.01442 38.0929 1.06953 38.0495 1.13664C37.9679 1.29639 37.933 1.39908 37.9679 1.49037L38.3986 4.5029C38.4207 4.64958 38.4901 4.78551 38.5965 4.89087ZM45.3591 1.46755C45.3192 1.32812 45.2475 1.19937 45.1496 1.09098C45.096 1.02751 45.0282 0.977007 44.9515 0.943362C44.8748 0.909724 44.7912 0.893854 44.7073 0.896997H42.5656C42.4858 0.894769 42.4069 0.913744 42.3372 0.951912C42.2676 0.990079 42.2097 1.04603 42.1699 1.11381C42.0924 1.21504 42.0589 1.3422 42.0768 1.46755L42.5074 4.48007C42.5344 4.62521 42.603 4.75979 42.7053 4.86804C42.7622 4.9305 42.8322 4.98018 42.9106 5.01366C42.989 5.04714 43.0737 5.06364 43.1592 5.06202H45.3009C45.3805 5.06306 45.4589 5.04358 45.5283 5.00553C45.5978 4.96747 45.6559 4.9122 45.6967 4.84523C45.7372 4.79418 45.7654 4.73487 45.7795 4.67169C45.7937 4.60851 45.7931 4.54304 45.7781 4.48007L45.3591 1.46755ZM36.7225 6.03198L36.513 4.54854H26.1887C26.0266 4.5573 25.8698 4.60853 25.7347 4.69688C25.649 4.74271 25.5744 4.80624 25.5161 4.88307C25.4579 4.9599 25.4173 5.04821 25.3972 5.14191L24.5359 7.97184C24.5015 8.04256 24.4897 8.12191 24.5022 8.19931C24.5147 8.27671 24.5508 8.34856 24.6057 8.40549C24.7039 8.49594 24.832 8.54866 24.9666 8.55384H37.514L34.4295 18.6641H21.917C21.7556 18.6677 21.5985 18.7151 21.4631 18.8009C21.2984 18.9035 21.1782 19.0619 21.1255 19.246L20.2525 22.076C20.224 22.1486 20.2165 22.2275 20.2309 22.304C20.2453 22.3805 20.2809 22.4516 20.334 22.5095C20.4291 22.6061 20.5582 22.6632 20.6948 22.6693H37.1299C37.2999 22.655 37.4637 22.6001 37.6071 22.5095C37.779 22.4149 37.9079 22.26 37.9679 22.076L42.6936 6.60253H37.3743C37.2899 6.60416 37.2061 6.5888 37.1281 6.5574C37.05 6.52599 36.9793 6.4792 36.9204 6.41994C36.8242 6.31647 36.7561 6.19089 36.7225 6.0548V6.03198Z" fill="white"/>
</svg>
