<svg width="37" height="31" viewBox="0 0 37 31" fill="none" xmlns="http://www.w3.org/2000/svg">
<path d="M0.500475 29.6472C0.500475 29.9592 0.753724 30.2129 1.06615 30.2129H35.5139C35.8259 30.2129 36.0796 29.9596 36.0796 29.6472C36.0796 29.3352 35.8263 29.0815 35.5139 29.0815H34.4682V12.8402C34.4682 12.5282 34.215 12.2746 33.9025 12.2746L24.6668 12.2749V0.565823C24.6668 0.367803 24.5635 0.18477 24.3946 0.0822C24.2262 -0.0207535 24.0156 -0.0270647 23.8404 0.0640544L13.3401 5.53104C13.1527 5.62847 13.0359 5.82176 13.0359 6.03281V16.2605H2.87388C2.56186 16.2605 2.3082 16.5137 2.3082 16.8262V29.0816H1.06489C0.752866 29.0812 0.5 29.3345 0.5 29.6469L0.500475 29.6472ZM24.667 20.8423H33.3374V29.082L24.667 29.0816V20.8423ZM24.667 16.9114H33.3374V19.7114L24.667 19.711V16.9114ZM24.667 13.4057H33.3374V15.7809H24.667V13.4057ZM14.1667 6.37629L23.5353 1.49824V29.0811H14.1667V6.37629ZM6.23588 24.5636C6.23588 23.3896 7.16603 22.4342 8.30959 22.4342C9.45314 22.4342 10.3837 23.3892 10.3837 24.5636V29.0818H6.23588V24.5636ZM3.43952 17.3916H13.0358V29.0816H11.515V24.5634C11.515 22.7657 10.0776 21.3031 8.30959 21.3031C6.54236 21.3031 5.10495 22.7653 5.10495 24.5634V29.0816H3.43952V17.3916Z" fill="#103E13"/>
</svg>
